<mxfile host="app.diagrams.net" modified="2023-12-11T18:28:00.600Z" agent="Mozilla/5.0 (Windows NT 10.0; Win64; x64; rv:109.0) Gecko/20100101 Firefox/119.0" version="22.1.7" etag="e1wQS2KOlrGTBSUfm8sr" type="github">
  <diagram name="Page-1" id="jJc1OHTATbbVW3YWvaiN">
    <mxGraphModel>
      <root>
        <mxCell id="0" />
        <mxCell id="1" parent="0" />
      </root>
    </mxGraphModel>
  </diagram>
</mxfile>
